<?xml version="1.0" encoding="UTF-8"?>
<svg width="1200px" height="630px" viewBox="0 0 1200 630" version="1.1" xmlns="http://www.w3.org/2000/svg" xmlns:xlink="http://www.w3.org/1999/xlink">
    <!-- Generator: Sketch 51.2 (57519) - http://www.bohemiancoding.com/sketch -->
    <title>Artboard</title>
    <desc>Created with Sketch.</desc>
    <defs></defs>
    <g id="Artboard" stroke="none" stroke-width="1" fill="none" fill-rule="evenodd">
        <rect fill="#FFE895" x="0" y="0" width="1200" height="630"></rect>
        <g id="logo" transform="translate(337.758554, 104.583327)">
            <rect id="Rectangle-path" fill-opacity="0" fill="#000000" fill-rule="nonzero" x="0.795891892" y="0" width="524.71231" height="419.885606"></rect>
            <path d="M138.296702,361.066364 C98.1690897,361.066364 73.7008013,328.982145 73.7008013,289.124038 C73.7008013,250.720401 96.2116382,231.803942 136.339251,231.803942 C175.977717,231.803942 203.868014,246.831152 203.868014,293.009541 C203.868014,338.220301 174.016806,361.066364 138.296702,361.066364 Z M274.832334,159.869976 L274.832334,0 L201.91748,0 L201.91748,159.869976 L123.354813,159.869976 C122.789282,159.860176 122.233839,159.814057 121.665138,159.814057 C120.927815,159.814057 120.213551,159.856717 119.482858,159.869976 L118.094107,159.869976 L118.074219,159.899377 C42.0841109,161.686189 0.795891892,219.722567 0.795891892,288.634027 C0.795891892,361.55061 46.7960031,419.88503 123.133154,419.88503 C159.835587,419.88503 179.558835,418.423643 201.91748,401.56725 L201.91748,414.53814 L274.832334,414.53814 L274.832334,232.171451 L525.508635,232.171451 L525.508635,159.869976 L274.832334,159.869976 Z" id="Shape" fill="#006595"></path>
            <polygon id="Shape" fill="#6CADD2" points="299.475009 411.808488 372.129292 411.808488 372.129292 250.314557 299.475009 250.314557"></polygon>
            <path d="M373.331261,110.212506 C373.331261,99.9487844 377.793248,87.8186956 392.167877,87.8186956 C406.542507,87.8186956 411.500269,97.6160417 411.500269,108.813091 C411.500269,110.675999 411.485857,116.7409 411.485857,116.7409 L468.998787,116.7409 L468.998787,103.684113 C468.998787,68.2271739 447.68329,32.3006888 387.705891,32.3006888 C343.097556,32.3006888 299.475009,51.8982635 299.475009,121.409556 L299.475009,137.271802 L373.331261,137.271802 L373.331261,110.212506 Z" id="Shape" fill="#6CADD2"></path>
        </g>
    </g>
</svg>